<?xml version="1.0" standalone="no"?>
<!DOCTYPE svg PUBLIC "-//W3C//DTD SVG 20010904//EN"
 "http://www.w3.org/TR/2001/REC-SVG-20010904/DTD/svg10.dtd">
<svg version="1.0" xmlns="http://www.w3.org/2000/svg"
 width="2048.000000pt" height="2048.000000pt" viewBox="0 0 2048.000000 2048.000000"
 preserveAspectRatio="xMidYMid meet">
<metadata>
Created by potrace 1.14, written by Peter Selinger 2001-2017
</metadata>
<g transform="translate(0.000000,2048.000000) scale(0.100000,-0.100000)"
fill="#000000" stroke="none">
<path d="M16810 18153 c-19 -3 -74 -13 -121 -23 -374 -83 -685 -321 -868 -665
-44 -82 -107 -272 -124 -375 -14 -84 -16 -340 -3 -405 4 -16 9 -43 12 -60 3
-16 15 -63 26 -103 l21 -74 -34 -31 c-35 -33 -188 -170 -248 -222 -18 -16 -39
-35 -45 -41 -6 -5 -58 -52 -116 -104 -58 -51 -141 -125 -185 -165 -44 -39
-100 -89 -125 -111 -24 -21 -51 -46 -60 -54 -9 -8 -51 -46 -95 -85 -43 -38
-88 -79 -101 -90 -12 -11 -51 -46 -85 -77 -35 -31 -76 -66 -90 -79 -27 -26
-156 -140 -187 -168 -11 -9 -55 -48 -98 -87 -110 -98 -362 -324 -403 -359 -18
-17 -43 -39 -55 -50 -119 -106 -187 -167 -221 -196 -21 -19 -46 -41 -55 -49
-9 -8 -51 -46 -93 -84 -43 -38 -88 -78 -100 -90 -13 -12 -54 -48 -91 -81 -37
-33 -78 -69 -90 -80 -63 -56 -103 -91 -117 -102 -13 -10 -30 -6 -95 21 -70 29
-176 60 -279 82 -49 9 -318 13 -366 4 -24 -5 -60 -11 -79 -14 -70 -12 -93 -17
-112 -27 -10 -5 -18 -8 -18 -5 0 16 -245 -96 -318 -146 -49 -34 -50 -34 -141
26 -36 23 -212 136 -391 251 -179 115 -354 227 -390 250 -265 172 -699 451
-868 559 -59 37 -250 161 -425 273 l-319 206 8 36 c16 75 12 326 -7 423 -103
542 -501 938 -1044 1038 -84 16 -293 20 -372 8 -32 -4 -69 -10 -83 -12 -52 -8
-155 -38 -229 -67 -403 -160 -699 -514 -787 -944 -19 -96 -25 -323 -11 -425 9
-67 34 -178 46 -205 4 -11 14 -38 21 -60 7 -22 30 -76 51 -119 22 -46 35 -84
30 -90 -8 -11 -879 -1133 -893 -1151 -5 -5 -31 -39 -58 -75 -78 -100 -86 -111
-132 -170 -24 -30 -47 -60 -53 -67 -5 -6 -35 -44 -65 -83 -30 -40 -100 -130
-155 -200 -55 -70 -152 -195 -215 -277 -63 -81 -117 -150 -120 -153 -3 -3 -25
-32 -50 -65 -24 -33 -52 -69 -61 -80 -19 -22 -158 -200 -324 -416 -60 -78
-114 -147 -120 -153 -5 -6 -30 -38 -55 -70 -64 -85 -92 -120 -417 -538 l-293
-375 -57 13 c-32 7 -74 16 -93 19 -57 11 -311 14 -360 5 -25 -4 -61 -11 -80
-14 -70 -12 -93 -17 -112 -27 -10 -5 -18 -8 -18 -5 0 2 -33 -9 -74 -24 -438
-169 -741 -537 -820 -995 -18 -106 -14 -355 8 -455 75 -346 274 -638 561 -822
156 -101 283 -150 500 -194 50 -10 307 -13 355 -4 25 4 63 11 85 14 22 4 58
12 80 18 22 6 45 12 50 14 64 13 282 118 351 169 57 42 150 120 180 151 315
327 430 730 341 1196 -3 15 -8 31 -11 36 -3 5 -7 22 -10 38 -7 36 -48 138 -88
217 l-29 58 48 64 c26 34 91 118 143 185 116 148 806 1036 837 1076 12 16 61
79 108 139 182 233 521 668 545 700 34 44 222 286 237 305 7 8 57 74 113 145
115 149 124 161 183 235 24 30 115 147 202 260 88 113 163 210 167 215 13 15
125 160 289 371 l148 191 53 -13 c140 -35 374 -43 515 -18 72 13 228 58 263
75 8 4 49 24 90 44 41 20 96 50 123 67 l47 30 116 -74 c63 -40 126 -80 140
-88 13 -8 167 -107 341 -220 175 -112 359 -230 408 -262 50 -31 95 -61 101
-65 5 -4 18 -12 27 -18 16 -9 215 -137 437 -280 83 -54 306 -197 615 -396 50
-32 136 -88 193 -124 l104 -67 -8 -52 c-10 -62 -11 -280 -2 -356 36 -306 205
-609 455 -817 119 -99 325 -210 443 -238 8 -2 42 -10 75 -19 127 -32 353 -45
458 -25 23 4 60 10 82 13 22 4 58 12 80 18 22 6 45 12 50 14 6 1 39 13 75 27
493 187 815 642 825 1167 3 131 -18 325 -39 358 -3 5 -7 19 -10 33 -3 13 -8
36 -12 50 -5 21 1 32 33 59 34 30 155 137 222 198 14 13 55 49 90 80 35 32 69
62 75 67 6 6 74 66 151 135 77 68 145 129 151 135 15 14 127 114 314 280 233
208 312 278 330 295 9 8 52 46 96 85 43 38 81 72 84 75 3 3 43 39 90 80 47 41
87 78 90 81 3 3 50 45 105 94 55 48 102 91 105 94 3 3 43 40 90 81 47 41 90
79 96 85 6 5 46 42 90 80 43 39 106 94 139 124 33 30 81 73 106 95 25 23 83
75 129 116 121 109 109 104 177 74 141 -64 294 -95 473 -99 178 -4 328 20 489
79 56 21 235 114 258 135 10 9 36 28 58 43 87 59 233 218 307 334 74 116 143
287 174 434 20 96 27 331 12 426 -65 429 -325 786 -709 974 -91 44 -197 82
-279 99 -30 6 -66 14 -80 17 -31 7 -302 12 -350 7z"/>
<path d="M16480 8560 l0 -6240 480 0 480 0 0 6240 0 6240 -480 0 -480 0 0
-6240z"/>
<path d="M7520 7840 l0 -5520 480 0 480 0 0 5520 0 5520 -480 0 -480 0 0
-5520z"/>
<path d="M12000 6640 l0 -4320 480 0 480 0 0 4320 0 4320 -480 0 -480 0 0
-4320z"/>
<path d="M3040 5200 l0 -2880 480 0 480 0 0 2880 0 2880 -480 0 -480 0 0
-2880z"/>
</g>
</svg>
